<svg xmlns="http://www.w3.org/2000/svg" xmlns:xlink="http://www.w3.org/1999/xlink" width="496" height="496" viewBox="0 0 496 496" fill="none"><rect x="0" y="0" width="496" height="496"   fill="#CCCCCC" fill-opacity="0"></rect><path d="M428.854 148.767C441.803 162.81 447.773 179.569 446.92 199.741L446.92 356.776C446.61 377.259 439.787 394.095 426.372 407.284C413.036 420.474 396.055 427.379 375.585 428L121.336 428C100.865 427.379 83.9619 420.397 70.7028 406.897C57.4437 393.397 50.5428 375.629 50 353.672L50 199.741C50.6203 179.569 57.5212 162.81 70.7028 148.767C83.9619 136.121 100.788 129.138 121.336 128.517L144.132 128.517L124.437 108.5C120.017 104.078 117.769 98.4138 117.769 91.5862C117.769 84.7586 120.017 79.0948 124.437 74.6724C128.857 70.25 134.517 68 141.418 68C148.319 68 153.902 70.25 158.399 74.6724L215.235 128.517L283.469 128.517L341.235 74.6724C345.965 70.25 351.78 68 358.604 68C365.427 68 371.087 70.25 375.585 74.6724C380.004 79.0948 382.253 84.7586 382.253 91.5862C382.253 98.4138 380.004 104.078 375.585 108.5L355.967 128.517L378.686 128.517C399.156 129.138 415.905 136.121 428.854 148.767ZM398.769 202.845C398.458 195.397 395.9 189.345 390.472 184.612C386.44 179.879 379.617 177.319 372.871 177.009L124.437 177.009C116.993 177.319 110.945 179.879 106.138 184.612C101.408 189.345 98.8493 195.397 98.5392 202.845L98.5392 353.672C98.5392 360.81 101.098 366.862 106.138 371.905C111.178 376.948 117.304 379.509 124.437 379.509L372.871 379.509C380.004 379.509 386.052 376.948 390.937 371.905C395.822 366.862 398.458 360.81 398.769 353.672L398.769 202.845ZM193.834 235.974C198.719 240.862 201.355 246.914 201.665 253.974L201.665 279.81C201.355 286.948 198.797 292.922 194.067 297.81C189.259 302.698 183.211 305.181 175.768 305.181C168.324 305.181 162.198 302.698 157.469 297.81C152.739 292.922 150.18 286.948 149.87 279.81L149.87 253.974C150.18 246.914 152.816 240.862 157.701 235.974C162.586 231.086 167.936 228.526 175.768 228.216C182.901 228.526 188.949 231.086 193.834 235.974ZM342.32 235.974C347.205 240.862 349.842 246.914 350.152 253.974L350.152 279.81C349.842 286.948 347.283 292.922 342.553 297.81C337.823 302.698 331.698 305.181 324.254 305.181C316.81 305.181 310.762 302.698 305.955 297.81C300.527 292.922 298.666 286.948 298.434 279.81L298.434 253.974C298.666 246.914 301.303 240.862 306.188 235.974C311.072 231.086 317.12 228.526 324.254 228.216C331.388 228.526 337.436 231.086 342.32 235.974Z"   fill="url(#linear_fill_lN0MkWhYU6vwKjTk2LCDF)" ></path><defs><linearGradient id="linear_fill_lN0MkWhYU6vwKjTk2LCDF" x1="236.2525634765625" y1="273.1136474609375" x2="447" y2="428" gradientUnits="userSpaceOnUse"><stop offset="0" stop-color="#33B8FF"  /><stop offset="1" stop-color="#1C74A3"  /></linearGradient></defs></svg>