<svg xmlns="http://www.w3.org/2000/svg" width="128" height="128" viewBox="0 0 32 32"><g fill="none"><rect width="27.813" height="19.938" x="2.094" y="10.063" fill="url(#IconifyId19c0e110be4f3762e17)" rx="1.75"/><rect width="27.813" height="19.938" x="2.094" y="10.063" fill="url(#IconifyId19c0e110be4f3762e18)" rx="1.75"/><path fill="url(#IconifyId19c0e110be4f3762e19)" d="M16 10.063V30H3.844a1.75 1.75 0 0 1-1.75-1.75V11.813c0-.967.783-1.75 1.75-1.75z"/><path fill="url(#IconifyId19c0e110be4f3762e30)" d="M16 10.063V30H3.844a1.75 1.75 0 0 1-1.75-1.75V11.813c0-.967.783-1.75 1.75-1.75z"/><path fill="url(#IconifyId19c0e110be4f3762e20)" d="M16 10.063V30h12.156a1.75 1.75 0 0 0 1.75-1.75V11.813a1.75 1.75 0 0 0-1.75-1.75z"/><path fill="url(#IconifyId19c0e110be4f3762e21)" d="M16 10.063V30h12.156a1.75 1.75 0 0 0 1.75-1.75V11.813a1.75 1.75 0 0 0-1.75-1.75z"/><path fill="url(#IconifyId19c0e110be4f3762e22)" d="M16 10.063V30h12.156a1.75 1.75 0 0 0 1.75-1.75V11.813a1.75 1.75 0 0 0-1.75-1.75z"/><path fill="url(#IconifyId19c0e110be4f3762e23)" d="M16 10.063V30h12.156a1.75 1.75 0 0 0 1.75-1.75V11.813a1.75 1.75 0 0 0-1.75-1.75z"/><g filter="url(#IconifyId19c0e110be4f3762e32)"><path fill="url(#IconifyId19c0e110be4f3762e24)" d="M2.094 28.25a.76.76 0 0 1 .358-.645l13.328-8.332a.4.4 0 0 1 .424 0l13.373 8.382c.205.129.33.353.33.595a1.75 1.75 0 0 1-1.75 1.75H3.843a1.75 1.75 0 0 1-1.75-1.75"/></g><path fill="url(#IconifyId19c0e110be4f3762e25)" d="M2.094 28.25a.76.76 0 0 1 .358-.645l13.328-8.332a.4.4 0 0 1 .424 0l13.373 8.382c.205.129.33.353.33.595a1.75 1.75 0 0 1-1.75 1.75H3.843a1.75 1.75 0 0 1-1.75-1.75"/><path fill="url(#IconifyId19c0e110be4f3762e26)" d="M2.094 28.25a.76.76 0 0 1 .358-.645l13.328-8.332a.4.4 0 0 1 .424 0l13.373 8.382c.205.129.33.353.33.595a1.75 1.75 0 0 1-1.75 1.75H3.843a1.75 1.75 0 0 1-1.75-1.75"/><g filter="url(#IconifyId19c0e110be4f3762e33)"><path fill="url(#IconifyId19c0e110be4f3762e27)" d="M2.094 11.813a.76.76 0 0 0 .358.645l13.328 8.331a.4.4 0 0 0 .424 0l13.373-8.382a.7.7 0 0 0 .33-.594a1.75 1.75 0 0 0-1.75-1.75H3.843a1.75 1.75 0 0 0-1.75 1.75"/><path fill="url(#IconifyId19c0e110be4f3762e28)" d="M2.094 11.813a.76.76 0 0 0 .358.645l13.328 8.331a.4.4 0 0 0 .424 0l13.373-8.382a.7.7 0 0 0 .33-.594a1.75 1.75 0 0 0-1.75-1.75H3.843a1.75 1.75 0 0 0-1.75 1.75"/><path fill="url(#IconifyId19c0e110be4f3762e29)" d="M2.094 11.813a.76.76 0 0 0 .358.645l13.328 8.331a.4.4 0 0 0 .424 0l13.373-8.382a.7.7 0 0 0 .33-.594a1.75 1.75 0 0 0-1.75-1.75H3.843a1.75 1.75 0 0 0-1.75 1.75"/><path fill="url(#IconifyId19c0e110be4f3762e31)" d="M2.094 11.813a.76.76 0 0 0 .358.645l13.328 8.331a.4.4 0 0 0 .424 0l13.373-8.382a.7.7 0 0 0 .33-.594a1.75 1.75 0 0 0-1.75-1.75H3.843a1.75 1.75 0 0 0-1.75 1.75"/></g><defs><linearGradient id="IconifyId19c0e110be4f3762e17" x1="4.094" x2="29.906" y1="21.188" y2="21" gradientUnits="userSpaceOnUse"><stop stop-color="#DFD0E6"/><stop offset="1" stop-color="#EEE5F8"/></linearGradient><linearGradient id="IconifyId19c0e110be4f3762e18" x1="2.094" x2="5.132" y1="21.126" y2="21.126" gradientUnits="userSpaceOnUse"><stop stop-color="#D6BABD"/><stop offset="1" stop-color="#DCC9DD" stop-opacity="0"/></linearGradient><linearGradient id="IconifyId19c0e110be4f3762e19" x1="10.837" x2="10.075" y1="23.004" y2="21.817" gradientUnits="userSpaceOnUse"><stop offset=".114" stop-color="#DAC3DF"/><stop offset="1" stop-color="#DAC3DF" stop-opacity="0"/></linearGradient><linearGradient id="IconifyId19c0e110be4f3762e20" x1="21.094" x2="21.924" y1="23.313" y2="21.817" gradientUnits="userSpaceOnUse"><stop offset=".114" stop-color="#F6EFFE"/><stop offset="1" stop-color="#F3EAFD" stop-opacity="0"/></linearGradient><linearGradient id="IconifyId19c0e110be4f3762e21" x1="20.156" x2="21.219" y1="17.969" y2="19.406" gradientUnits="userSpaceOnUse"><stop stop-color="#E3CDF7"/><stop offset="1" stop-color="#E9D9F8" stop-opacity="0"/></linearGradient><linearGradient id="IconifyId19c0e110be4f3762e22" x1="30.094" x2="26.375" y1="23.594" y2="23.594" gradientUnits="userSpaceOnUse"><stop stop-color="#F7F3FB"/><stop offset="1" stop-color="#F0E9F8" stop-opacity="0"/></linearGradient><linearGradient id="IconifyId19c0e110be4f3762e23" x1="30.094" x2="28.868" y1="23.594" y2="23.594" gradientUnits="userSpaceOnUse"><stop offset=".199" stop-color="#EBE9ED"/><stop offset="1" stop-color="#EBE9ED" stop-opacity="0"/></linearGradient><linearGradient id="IconifyId19c0e110be4f3762e24" x1="16" x2="16" y1="31.75" y2="20.938" gradientUnits="userSpaceOnUse"><stop stop-color="#DDC5F1"/><stop offset="1" stop-color="#E6DAF1"/></linearGradient><linearGradient id="IconifyId19c0e110be4f3762e25" x1="7.486" x2="7.942" y1="24.138" y2="24.822" gradientUnits="userSpaceOnUse"><stop offset=".073" stop-color="#DDC2C8"/><stop offset="1" stop-color="#DFCDDA" stop-opacity="0"/></linearGradient><linearGradient id="IconifyId19c0e110be4f3762e26" x1="22.581" x2="22.294" y1="23.19" y2="23.637" gradientUnits="userSpaceOnUse"><stop offset=".14" stop-color="#F8F3FD"/><stop offset="1" stop-color="#F1EAF9" stop-opacity="0"/></linearGradient><linearGradient id="IconifyId19c0e110be4f3762e27" x1="16" x2="16" y1="10.063" y2="20.85" gradientUnits="userSpaceOnUse"><stop stop-color="#E9E4E9"/><stop offset="1" stop-color="#E7DCF0"/></linearGradient><linearGradient id="IconifyId19c0e110be4f3762e28" x1="9.81" x2="13.424" y1="16.909" y2="10.424" gradientUnits="userSpaceOnUse"><stop stop-color="#E1D5E7"/><stop offset="1" stop-color="#E1D5E7" stop-opacity="0"/></linearGradient><linearGradient id="IconifyId19c0e110be4f3762e29" x1="2.094" x2="5.026" y1="11.7" y2="11.7" gradientUnits="userSpaceOnUse"><stop stop-color="#E1C1BC"/><stop offset="1" stop-color="#E1C1BC" stop-opacity="0"/><stop offset="1" stop-color="#E9D1CD" stop-opacity="0"/></linearGradient><radialGradient id="IconifyId19c0e110be4f3762e30" cx="0" cy="0" r="1" gradientTransform="rotate(123.69 1.403 11.95)scale(2.72523 19.1395)" gradientUnits="userSpaceOnUse"><stop offset=".342" stop-color="#C8A6D7"/><stop offset="1" stop-color="#D1BBDD" stop-opacity="0"/></radialGradient><radialGradient id="IconifyId19c0e110be4f3762e31" cx="0" cy="0" r="1" gradientTransform="rotate(-138.233 16.427 1.835)scale(6.12906 27.1579)" gradientUnits="userSpaceOnUse"><stop stop-color="#FBF9FE"/><stop offset="1" stop-color="#F0ECF1" stop-opacity="0"/></radialGradient><filter id="IconifyId19c0e110be4f3762e32" width="27.813" height="11.538" x="2.094" y="18.462" color-interpolation-filters="sRGB" filterUnits="userSpaceOnUse"><feFlood flood-opacity="0" result="BackgroundImageFix"/><feBlend in="SourceGraphic" in2="BackgroundImageFix" result="shape"/><feColorMatrix in="SourceAlpha" result="hardAlpha" values="0 0 0 0 0 0 0 0 0 0 0 0 0 0 0 0 0 0 127 0"/><feOffset dy="-.75"/><feGaussianBlur stdDeviation=".75"/><feComposite in2="hardAlpha" k2="-1" k3="1" operator="arithmetic"/><feColorMatrix values="0 0 0 0 0.819608 0 0 0 0 0.654902 0 0 0 0 0.933333 0 0 0 1 0"/><feBlend in2="shape" result="effect1_innerShadow_18_21762"/></filter><filter id="IconifyId19c0e110be4f3762e33" width="27.813" height="11.188" x="2.094" y="9.912" color-interpolation-filters="sRGB" filterUnits="userSpaceOnUse"><feFlood flood-opacity="0" result="BackgroundImageFix"/><feBlend in="SourceGraphic" in2="BackgroundImageFix" result="shape"/><feColorMatrix in="SourceAlpha" result="hardAlpha" values="0 0 0 0 0 0 0 0 0 0 0 0 0 0 0 0 0 0 127 0"/><feOffset dy="-.15"/><feGaussianBlur stdDeviation=".225"/><feComposite in2="hardAlpha" k2="-1" k3="1" operator="arithmetic"/><feColorMatrix values="0 0 0 0 0.827451 0 0 0 0 0.686275 0 0 0 0 0.913725 0 0 0 1 0"/><feBlend in2="shape" result="effect1_innerShadow_18_21762"/><feColorMatrix in="SourceAlpha" result="hardAlpha" values="0 0 0 0 0 0 0 0 0 0 0 0 0 0 0 0 0 0 127 0"/><feOffset dy=".25"/><feGaussianBlur stdDeviation=".3"/><feComposite in2="hardAlpha" k2="-1" k3="1" operator="arithmetic"/><feColorMatrix values="0 0 0 0 0.870588 0 0 0 0 0.858824 0 0 0 0 0.854902 0 0 0 1 0"/><feBlend in2="effect1_innerShadow_18_21762" result="effect2_innerShadow_18_21762"/></filter></defs></g></svg>