<svg xmlns="http://www.w3.org/2000/svg" xmlns:xlink="http://www.w3.org/1999/xlink" width="496" height="496" viewBox="0 0 496 496" fill="none"><rect x="0" y="0" width="496" height="496"   fill="#CCCCCC" fill-opacity="0"></rect><path d="M248.011 466.844C208.858 466.844 172.917 453.753 149.777 434.204C138.025 437.711 122.992 443.353 113.508 450.352C105.385 456.337 106.401 462.441 107.863 464.903C114.286 475.731 218.055 471.818 248.011 468.447L248.011 466.844ZM248.011 466.844C287.17 466.844 323.108 453.753 346.25 434.204C357.997 437.711 373.032 443.353 382.52 450.352C390.636 456.337 389.624 462.441 388.159 464.903C381.736 475.731 277.97 471.818 248.011 468.447L248.011 466.844Z"   fill="url(#linear_fill_cXjpabzrqypncH1dMqnAn)" ></path><path d="M248.239 232.441C312.899 232.005 364.719 219.501 382.279 214.708C386.465 213.563 388.701 211.513 388.701 211.513C388.717 210.923 388.967 200.997 388.967 195.879C388.967 109.649 348.218 23.0031 248.001 23C147.784 23.0031 107.032 109.652 107.032 195.876C107.032 201 107.282 210.923 107.3 211.51C107.3 211.51 109.122 213.429 112.455 214.358C128.668 218.864 181.464 231.989 247.761 232.441L248.239 232.441ZM423.946 304.274C419.938 291.39 414.468 276.365 408.926 261.936C408.926 261.936 405.74 261.543 404.124 262.008C354.413 276.434 294.155 285.63 248.239 285.074L247.761 285.074C202.101 285.62 142.251 276.533 92.7052 262.248C90.8121 261.702 87.0757 261.936 87.0757 261.936C81.5338 276.365 76.0637 291.393 72.0557 304.274C52.94 365.716 59.1349 391.141 63.849 391.709C73.9675 392.932 103.23 345.461 103.23 345.461C103.23 393.7 146.831 467.767 246.677 468.447L249.326 468.447C349.168 467.767 392.769 393.7 392.769 345.461C392.769 345.461 422.034 392.932 432.153 391.712C436.864 391.141 443.059 365.713 423.946 304.274Z"   fill="url(#linear_fill_7ESD3GfTKXaGeyuXcMjj_)" ></path><path d="M212.341 150.389C198.745 151.004 187.13 135.536 186.399 115.867C185.662 96.1929 196.077 79.745 209.673 79.1303C223.253 78.5218 234.865 93.9836 235.602 113.658C236.346 133.336 225.927 149.784 212.341 150.389ZM309.6 115.867C308.872 135.533 297.257 151.004 283.661 150.389C270.072 149.78 259.657 133.336 260.4 113.661C261.137 93.9867 272.746 78.5249 286.329 79.1303C299.925 79.745 310.34 96.1929 309.6 115.867Z"   fill="#FFFFFF" ></path><path     fill="url(#linear_fill_jOU8sYtstu7Q5kkrk1sjE_0)"  d="M333.761 178.164C330.13 170.129 293.539 161.173 248.245 161.173L247.757 161.173C202.46 161.173 165.872 170.129 162.239 178.167C162.065 178.529 161.976 178.911 161.973 179.312C161.98 179.88 162.146 180.396 162.473 180.86C165.534 185.313 206.162 207.343 247.757 207.343L248.245 207.343C289.837 207.343 330.465 185.319 333.526 180.86C333.856 180.394 334.022 179.876 334.026 179.306C334.023 178.907 333.935 178.527 333.761 178.167"></path><path     fill="url(#linear_fill_bcI0K7roAKO74Eaj-cB0T_0)"  d="M229.051 116.158C229.673 123.928 225.406 130.83 219.536 131.582C213.653 132.338 208.389 126.652 207.764 118.882C207.149 111.106 211.41 104.204 217.271 103.455C223.163 102.693 228.436 108.385 229.051 116.155M266.401 118.754C267.604 116.604 275.786 105.299 292.727 109.415C297.179 110.498 299.237 112.089 299.672 112.713C300.312 113.637 300.49 114.954 299.837 116.726C298.55 120.24 295.892 120.143 294.42 119.456C293.468 119.013 281.668 111.156 270.797 122.879C270.047 123.681 268.71 123.959 267.445 123.004C266.173 122.043 265.652 120.102 266.401 118.754Z"></path><path     fill="url(#linear_fill_694InbzlxxRijcQz0y0CS_0)"  d="M248.239 282.247L247.761 282.247C216.534 282.621 178.671 278.49 142.002 271.269C138.865 289.424 136.972 312.247 138.596 339.46C142.708 408.245 183.604 451.485 246.73 452.109L249.292 452.109C312.421 451.485 353.314 408.245 357.431 339.46C359.056 312.241 357.159 289.424 354.02 271.266C317.347 278.49 279.475 282.625 248.242 282.244"></path><path d="M248.239 231.093C328.316 230.553 388.702 211.512 388.702 211.512L408.927 261.933C358.334 277.167 295.645 286.984 248.239 286.413L247.761 286.413C239.409 286.513 230.583 286.291 221.432 285.774L221.432 346.103C190.33 350.434 159.286 344.181 159.286 344.181L159.286 278.597C134.428 274.403 109.557 268.703 87.0757 261.933L107.3 211.512C107.506 211.575 167.815 230.557 247.761 231.093L248.239 231.093Z" fill-rule="evenodd"  fill="url(#linear_fill_8_6)" ></path><defs><linearGradient id="linear_fill_cXjpabzrqypncH1dMqnAn" x1="106.86285400390625" y1="453.1019287109375" x2="389.159912109375" y2="453.1019287109375" gradientUnits="userSpaceOnUse"><stop offset="0" stop-color="#FAAB07"  /><stop offset="1" stop-color="#D6920B"  /></linearGradient><linearGradient id="linear_fill_7ESD3GfTKXaGeyuXcMjj_" x1="369.64794921875" y1="448.84765625" x2="130.438232421875" y2="146.714111328125" gradientUnits="userSpaceOnUse"><stop offset="0" stop-color="#000000"  /><stop offset="1" stop-color="#2E2E2E"  /></linearGradient><linearGradient id="linear_fill_jOU8sYtstu7Q5kkrk1sjE_0" x1="161.97308349609375" y1="184.25830078125" x2="334.02606201171875" y2="184.25830078125" gradientUnits="userSpaceOnUse"><stop offset="0" stop-color="#FAAB07"  /><stop offset="1" stop-color="#DE980D"  /></linearGradient><linearGradient id="linear_fill_bcI0K7roAKO74Eaj-cB0T_0" x1="341.57110595703125" y1="445.1693115234375" x2="224.62860107421875" y2="87.917236328125" gradientUnits="userSpaceOnUse"><stop offset="0" stop-color="#000000"  /><stop offset="1" stop-color="#2E2E2E"  /></linearGradient><linearGradient id="linear_fill_694InbzlxxRijcQz0y0CS_0" x1="253.26983642578125" y1="353.5223388671875" x2="330.2293701171875" y2="416.397705078125" gradientUnits="userSpaceOnUse"><stop offset="0" stop-color="#FFFFFF"  /><stop offset="1" stop-color="#A6A6A6"  /></linearGradient><linearGradient id="linear_fill_8_6" x1="136.125732421875" y1="233.84423828125" x2="367.2340087890625" y2="279.572021484375" gradientUnits="userSpaceOnUse"><stop offset="0" stop-color="#EB1923"  /><stop offset="1" stop-color="#94161C"  /></linearGradient></defs></svg>